<svg xmlns="http://www.w3.org/2000/svg" xmlns:svg="http://www.w3.org/2000/svg" xmlns:xlink="http://www.w3.org/1999/xlink" version="1.0" height="810.0000000000008pt" width="1140pt" viewBox="265.0000000000001 -23.000000000000007 1148 816.0000000000008" ><defs><style type="text/css">
            @font-face {
                font-family: 'lt_regular';
                src: url('https://app.creately.com/diagram/assets/fonts/lato/lt-regular-webfont.woff2') format('woff2'),
                    url('https://app.creately.com/diagram/assets/fonts/lato/lt-regular-webfont.woff') format('woff');
                font-weight: normal;
                font-style: normal;
            }
            @font-face {
                font-family: 'noto_regular';
                src: url('https://app.creately.com/diagram/assets/fonts/noto/noto-regular.woff') format('woff'),
                     url('https://app.creately.com/diagram/assets/fonts/noto/noto-regular.woff2') format('woff2');
                font-weight: normal;
                font-style: normal;
            }
        p {
            margin: 0;
        }
        </style></defs><defs><style>
            span{ display: inline-block; }
        </style></defs><g id="vi6UPE1fCVe"><g transform="translate(270.0000000000001 -20)"><rect x="0" y="0" width="1139.9999999999998" height="810.0000000000008" fill="rgb(213,221,224)" stroke="#d5dde0" stroke-width="2" stroke-linecap="round" stroke-linejoin="round" stroke-dasharray="0 0"/></g><g transform="translate(840.0000000000001, 376.0000000000004) rotate(0, 0, 9)" width="0" height="18"><text text-decoration="none" x="0" fill="#4b4b4b" font-size="10pt" font-family="noto_regular"  y="15"></text></g></g><g id="VSNPW60OA5W"><g><path d="M 588,126 L 588,126" fill="none" stroke="#7E7E7E" stroke-width="2" stroke-linecap="round" stroke-linejoin="round"/></g></g><g id="B0taCReoidN"><g transform="translate(569.9999999999994 -20.000000000000007)"><rect x="0" y="0" width="640.0000000000002" height="120.00000000000006" fill="rgba(255,255,255,0.01)" stroke="rgba(255,255,255,0.01)"/></g><g transform="translate(579.9999999999994, -10.000000000000009) rotate(0, 0, 0)" width="593" height="46"><text text-decoration="none" x="0" fill="rgb(75, 75, 75)" font-weight="bold" font-size="25pt" font-family="lt_regular"  y="36">ORGANIZATIONAL&#160;</text><text text-decoration="none" x="295" fill="rgb(75, 75, 75)" font-weight="bold" font-size="25pt" font-family="lt_regular"  y="36">CHART&#160;</text><text text-decoration="none" x="412" fill="rgb(75, 75, 75)" font-weight="bold" font-size="25pt" font-family="lt_regular"  y="36">for&#160;</text><text text-decoration="none" x="463" fill="rgb(75, 75, 75)" font-weight="bold" font-size="25pt" font-family="lt_regular"  y="36">ABC&#160;</text><text text-decoration="none" x="536" fill="rgb(75, 75, 75)" font-weight="bold" font-size="25pt" font-family="lt_regular"  y="36">Co.</text><text text-decoration="none" x="585" fill="#4b4b4b" font-size="10pt" font-family="noto_regular"  y="36"></text></g></g><g id="n1FbZBEde9Z"><g transform="translate(760.0000000000002 50.00000000000006)"><ellipse cx="69.99999999999994" cy="69.99999999999994" rx="69.99999999999994" ry="69.99999999999994" fill="rgb(255,255,255)" stroke="#000000" stroke-width="2" stroke-linecap="round" stroke-linejoin="round"/></g><g transform="translate(830.0000000000002, 111) rotate(0, 0, 9)" width="0" height="18"><text text-decoration="none" x="0" fill="#4b4b4b" font-size="10pt" font-family="noto_regular"  y="15"></text></g></g><g id="RDlOICVuK70"><g transform="translate(780 60)"><rect x="0" y="0" width="86" height="110" fill="rgba(255,255,255,0.01)" stroke="rgba(255,255,255,0.01)"/><path d="M 54.4,68 C 49.1,65.2 50.1,57.5 50.4,54.7 C 48.1,55.6 45.3,56 42.4,56 C 39.5,56 36.8,55.5 34.4,54.7 C 34.699999999999996,57.5 35.699999999999996,65.2 30.4,68 C 13.599999999999998,70.4 3.5,77.3 3.5,81 L 3.5,105.7 C 3.5,108 5.3,109.8 7.6,109.8 L 80.69999999999999,109.8 C 82.99999999999999,109.8 84.79999999999998,108 84.79999999999998,105.7 L 82.79999999999998,81 C 82.79999999999998,77.4 71.19999999999999,70.4 54.399999999999984,68 Z" fill="rgb(241, 199, 159)" stroke="rgba(255,255,255,0.01)"/><path d="M 33.4,65.2 C 35.199999999999996,62.1 34.699999999999996,57.900000000000006 34.5,56 C 36.8,56.9 39.6,57.3 42.5,57.3 C 45.4,57.3 48.1,56.8 50.5,56 C 50.3,57.8 49.9,62.2 51.6,65.2 C 51.6,65.2 47.6,67.4 42.6,67.4 C 37.6,67.4 33.400000000000006,65.2 33.400000000000006,65.2 Z" fill="rgb(228, 174, 128)" stroke="rgba(255,255,255,0.01)"/><path d="M 30,68.1 C 13.2,70.5 3,77.4 3,81 L 1,105.7 C 1,108 2.8,109.8 5.1,109.8 L 80.89999999999999,109.8 C 83.19999999999999,109.8 84.99999999999999,108 84.99999999999999,105.7 L 83,81 C 83,77.3 71.4,70.4 54.6,68 C 54.4,68 44.3,78.3 30,68.1 Z" fill="rgb(77, 76, 76)" stroke="rgba(255,255,255,0.01)"/><path d="M 63.9,37.6 C 63.9,52.2 54.5,64 42.9,64 C 31.299999999999997,64 21.9,52.2 21.9,37.6 C 21.9,23 31.299999999999997,11.100000000000001 42.9,11.200000000000003 C 62.3,11.400000000000002 63.9,23.000000000000004 63.9,37.6 Z" fill="rgb(251, 206, 164)" stroke="rgba(255,255,255,0.01)"/><path d="M 14.4,109.8 L 16.3,94.2 L 16.3,109.8 Z M 72.3,109.8 L 70.5,94.2 L 70.5,109.8 Z" fill="rgb(58, 58, 58)" stroke="rgba(255,255,255,0.01)"/><path d="M 53.6,72.6 L 46.4,75.3 L 30.2,70.2 L 28.9,76.4 L 36,102 L 38.8,109.8 L 46.099999999999994,109.8 L 55.8,76.4 Z" fill="rgb(234, 241, 238)" stroke="rgba(255,255,255,0.01)"/><path d="M 31.7,22.2 C 27.299999999999997,23.5 26.7,23.099999999999998 24.2,26.7 C 21.4,30.599999999999998 22.4,36.1 22.4,36.1 L 22.2,36.300000000000004 L 21.9,34.800000000000004 C 21.9,34.800000000000004 17.4,23.200000000000003 20.299999999999997,15.400000000000006 C 22.299999999999997,10.100000000000005 24.799999999999997,2.0000000000000053 41.9,0.4000000000000057 C 65.8,-1.8999999999999941 61.5,8.700000000000006 64.8,16.300000000000004 C 68,23.500000000000004 62.5,37.300000000000004 62.5,37.300000000000004 C 61.1,24.900000000000006 60.6,18.600000000000005 55.7,15.700000000000003 C 55.7,15.700000000000003 37.7,20.400000000000002 31.700000000000003,22.200000000000003 Z" fill="rgb(168, 115, 55)" stroke="rgba(255,255,255,0.01)"/><path d="M 40.7,75.3 L 38.7,109.8 L 46.2,109.8 L 44.1,75.3 Z" fill="rgb(223, 76, 115)" stroke="rgba(255,255,255,0.01)"/><path d="M 42.4,72.6 L 39.199999999999996,76.19999999999999 L 42.599999999999994,80.1 L 45.599999999999994,76.1 Z" fill="rgb(223, 76, 115)" stroke="rgba(255,255,255,0.01)"/><path d="M 67.9,38.9 C 67.4,42.4 65.2,44.199999999999996 63.300000000000004,44.199999999999996 C 61.400000000000006,44.199999999999996 61,41.4 61,38.9 C 61,37.199999999999996 61.8,35.699999999999996 62.9,35 C 63.4,34.7 65.7,34.1 66.3,34.1 C 68.6,34 68.3,36.4 67.89999999999999,38.9 Z M 17.60000000000001,38.9 C 18.10000000000001,42.4 20.300000000000008,44.199999999999996 22.20000000000001,44.199999999999996 C 24.100000000000012,44.199999999999996 24.50000000000001,41.4 24.50000000000001,38.9 C 24.50000000000001,37.199999999999996 23.70000000000001,35.699999999999996 22.600000000000012,35 C 22.100000000000012,34.7 19.80000000000001,34.1 19.200000000000014,34.1 C 17.000000000000014,34 17.300000000000015,36.4 17.600000000000012,38.9 Z" fill="rgb(251, 206, 164)" stroke="rgba(255,255,255,0.01)"/><path d="M 44.2,70.5 C 37.2,70.1 34.7,66.9 32.900000000000006,66 C 32.800000000000004,65.9 30.500000000000007,68.1 30.500000000000007,68.1 C 30.500000000000007,68.1 30.000000000000007,68.1 29.200000000000006,68.39999999999999 C 28.800000000000008,68.6 28.600000000000005,68.89999999999999 27.900000000000006,69.1 L 38.300000000000004,77.6 L 44.2,70.5 Z" fill="rgb(255, 255, 255)" stroke="rgba(255,255,255,0.01)"/><path d="M 41,70.9 C 48,70.5 50.5,67.30000000000001 52.3,66.4 C 52.4,66.30000000000001 54.699999999999996,68.5 54.699999999999996,68.5 C 54.699999999999996,68.5 55.199999999999996,68.5 55.99999999999999,68.8 C 56.39999999999999,69 56.599999999999994,69.3 57.29999999999999,69.5 L 46.9,78 L 41,70.9 Z" fill="rgb(255, 255, 255)" stroke="rgba(255,255,255,0.01)"/><path d="M 30.4,68.1 C 30.4,68.1 27.9,68.1 26.5,69.89999999999999 C 25,71.69999999999999 24.3,75.49999999999999 23.9,78.3 C 23.9,78.7 23.799999999999997,79 23.799999999999997,79.39999999999999 L 28.999999999999996,81.69999999999999 L 24.599999999999994,85.1 L 38.599999999999994,109.89999999999999 L 31.399999999999995,67.29999999999998 L 30.399999999999995,68.09999999999998 Z M 54.5,68.1 C 54.5,68.1 57,68.1 58.4,69.89999999999999 C 59.9,71.69999999999999 60.6,75.49999999999999 61,78.3 C 61,78.7 61.1,79 61.1,79.39999999999999 L 55.9,81.69999999999999 L 60.3,85.1 L 46.3,109.89999999999999 L 53.5,67.29999999999998 L 54.5,68.09999999999998 Z" fill="rgb(104, 105, 105)" stroke="rgba(255,255,255,0.01)"/></g><g transform="translate(823, 180) rotate(0, 0, 0)" width="0" height="18"><text text-decoration="none" x="0" fill="#4b4b4b" font-size="10pt" font-family="noto_regular"  y="15"></text></g></g><g id="s7eFPEsoU7p"><g transform="translate(359.99999999999886 280.00000000000006)"><rect x="0" y="0" width="120" height="60" fill="rgb(68,87,98)" stroke="#445762" stroke-width="2" stroke-linecap="round" stroke-linejoin="round" stroke-dasharray="0 0"/></g><g transform="translate(379.99999999999886, 300.00000000000006) rotate(0, 40, 10)" width="80" height="20"><text text-decoration="none" x="1" fill="#ffffff" font-size="10pt" font-family="lt_regular"  y="15">Finance&#160;</text><text text-decoration="none" x="47" fill="#ffffff" font-size="10pt" font-family="lt_regular"  y="15">Team</text><text text-decoration="none" x="79" fill="#4b4b4b" font-size="10pt" font-family="noto_regular"  y="15"></text></g></g><g id="vxNPFdeJVHb"><g transform="translate(619.9999999999999 280.00000000000006)"><rect x="0" y="0" width="120" height="60" fill="rgb(68,87,98)" stroke="#445762" stroke-width="2" stroke-linecap="round" stroke-linejoin="round" stroke-dasharray="0 0"/></g><g transform="translate(635.9999999999999, 300.00000000000006) rotate(0, 44, 10)" width="88" height="20"><text text-decoration="none" x="0" fill="#ffffff" font-size="10pt" font-family="lt_regular"  y="15">Technical&#160;</text><text text-decoration="none" x="56" fill="#ffffff" font-size="10pt" font-family="lt_regular"  y="15">Team</text><text text-decoration="none" x="88" fill="#4b4b4b" font-size="10pt" font-family="noto_regular"  y="15"></text></g></g><g id="WhcQlyneAoK"><g transform="translate(879.9999999999999 280.00000000000017)"><rect x="0" y="0" width="120" height="60" fill="rgb(68,87,98)" stroke="#445762" stroke-width="2" stroke-linecap="round" stroke-linejoin="round" stroke-dasharray="0 0"/></g><g transform="translate(913.9999999999999, 300.00000000000017) rotate(0, 26, 10)" width="52" height="20"><text text-decoration="none" x="17" fill="#ffffff" font-size="10pt" font-family="lt_regular"  y="14">HR&#160;</text><text text-decoration="none" x="10" fill="#ffffff" font-size="10pt" font-family="lt_regular"  y="33">Team</text><text text-decoration="none" x="42" fill="#4b4b4b" font-size="10pt" font-family="noto_regular"  y="33"></text></g></g><g id="J06duS69ujY"><g transform="translate(1149.9999999999998 280.0000000000001)"><rect x="0" y="0" width="120" height="60" fill="rgb(68,87,98)" stroke="#445762" stroke-width="2" stroke-linecap="round" stroke-linejoin="round" stroke-dasharray="0 0"/></g><g transform="translate(1166.9999999999998, 291.0000000000001) rotate(0, 43, 19)" width="86" height="38"><text text-decoration="none" x="1" fill="#ffffff" font-size="10pt" font-family="lt_regular"  y="14">Administration&#160;</text><text text-decoration="none" x="27" fill="#ffffff" font-size="10pt" font-family="lt_regular"  y="33">Team</text><text text-decoration="none" x="59" fill="#4b4b4b" font-size="10pt" font-family="noto_regular"  y="33"></text></g></g><g id="XPDa6upEik3"><g transform="translate(1150.0000000000002 380.00000000000017)"><rect x="0" y="0" width="200" height="59.999999999999936" fill="rgb(130,184,68)" stroke="#82b844" stroke-width="2" stroke-linecap="round" stroke-linejoin="round" stroke-dasharray="0 0"/></g><g transform="translate(1180.0000000000002, 391.0000000000001) rotate(0, 70, 19)" width="140" height="38"><text text-decoration="none" x="30" fill="#ffffff" font-weight="bold" font-size="10pt" font-family="lt_regular"  y="14">Brenda&#160;</text><text text-decoration="none" x="73" fill="#ffffff" font-weight="bold" font-size="10pt" font-family="lt_regular"  y="14">J.&#160;</text><text text-decoration="none" x="84" fill="#ffffff" font-weight="bold" font-size="10pt" font-family="lt_regular"  y="14">Soto</text><text text-decoration="none" x="110" fill="#ffffff" font-size="10pt" font-family="lt_regular"  y="14"></text><text text-decoration="none" x="1.5" fill="#ffffff" font-size="10pt" font-family="lt_regular"  y="33">Administration&#160;</text><text text-decoration="none" x="88.5" fill="#ffffff" font-size="10pt" font-family="lt_regular"  y="33">Manager</text><text text-decoration="none" x="138.5" fill="#4b4b4b" font-size="10pt" font-family="noto_regular"  y="33"></text></g></g><g id="krnbTbo0uRV"><g transform="translate(1149.9999999999998 480)"><rect x="0" y="0" width="200" height="59.999999999999936" fill="rgb(130,184,68)" stroke="#82b844" stroke-width="2" stroke-linecap="round" stroke-linejoin="round" stroke-dasharray="0 0"/></g><g transform="translate(1203.9999999999998, 490.99999999999994) rotate(0, 46, 19)" width="92" height="38"><text text-decoration="none" x="5" fill="#ffffff" font-weight="bold" font-size="10pt" font-family="lt_regular"  y="14">Judith&#160;</text><text text-decoration="none" x="42" fill="#ffffff" font-weight="bold" font-size="10pt" font-family="lt_regular"  y="14">J.&#160;</text><text text-decoration="none" x="53" fill="#ffffff" font-weight="bold" font-size="10pt" font-family="lt_regular"  y="14">Keller</text><text text-decoration="none" x="87" fill="#ffffff" font-size="10pt" font-family="lt_regular"  y="14"></text><text text-decoration="none" x="1.5" fill="#ffffff" font-size="10pt" font-family="lt_regular"  y="33">Senior&#160;</text><text text-decoration="none" x="40.5" fill="#ffffff" font-size="10pt" font-family="lt_regular"  y="33">Manager</text><text text-decoration="none" x="90.5" fill="#4b4b4b" font-size="10pt" font-family="noto_regular"  y="33"></text></g></g><g id="TVI6jTdLDBC"><g transform="translate(1149.9999999999998 580.0000000000001)"><rect x="0" y="0" width="200" height="59.999999999999936" fill="rgb(130,184,68)" stroke="#82b844" stroke-width="2" stroke-linecap="round" stroke-linejoin="round" stroke-dasharray="0 0"/></g><g transform="translate(1186.9999999999998, 591) rotate(0, 63, 19)" width="126" height="38"><text text-decoration="none" x="1" fill="#ffffff" font-weight="bold" font-size="10pt" font-family="lt_regular"  y="14">Shirley&#160;</text><text text-decoration="none" x="43" fill="#ffffff" font-weight="bold" font-size="10pt" font-family="lt_regular"  y="14">W.&#160;</text><text text-decoration="none" x="62" fill="#ffffff" font-weight="bold" font-size="10pt" font-family="lt_regular"  y="14">Henderson</text><text text-decoration="none" x="125" fill="#ffffff" font-size="10pt" font-family="lt_regular"  y="14"></text><text text-decoration="none" x="10" fill="#ffffff" font-size="10pt" font-family="lt_regular"  y="33">Assistant&#160;</text><text text-decoration="none" x="66" fill="#ffffff" font-size="10pt" font-family="lt_regular"  y="33">Manager</text><text text-decoration="none" x="116" fill="#4b4b4b" font-size="10pt" font-family="noto_regular"  y="33"></text></g></g><g id="aTJY09bnNpa"><g transform="translate(1149.9999999999998 670.0000000000001)"><rect x="0" y="0" width="200" height="59.999999999999936" fill="rgb(130,184,68)" stroke="#82b844" stroke-width="2" stroke-linecap="round" stroke-linejoin="round" stroke-dasharray="0 0"/></g><g transform="translate(1197.4999999999998, 681) rotate(0, 52.5, 19)" width="105" height="38"><text text-decoration="none" x="1.5" fill="#ffffff" font-weight="bold" font-size="10pt" font-family="lt_regular"  y="14">Barbara&#160;</text><text text-decoration="none" x="47.5" fill="#ffffff" font-weight="bold" font-size="10pt" font-family="lt_regular"  y="14">S.&#160;</text><text text-decoration="none" x="60.5" fill="#ffffff" font-weight="bold" font-size="10pt" font-family="lt_regular"  y="14">Overby</text><text text-decoration="none" x="103.5" fill="#ffffff" font-size="10pt" font-family="lt_regular"  y="14"></text><text text-decoration="none" x="38.5" fill="#ffffff" font-size="10pt" font-family="lt_regular"  y="33">Staff</text><text text-decoration="none" x="66.5" fill="#4b4b4b" font-size="10pt" font-family="noto_regular"  y="33"></text></g></g><g id="rbSDNfwbgup"><g><path d="M 1150,700 L 1129.9999999999998,700 L 1130,675 L 1129.9999999999998,650.0000000000001 L 1130,650 L 1130.0000000000002,650.0000000000001 L 1130,530 L 1130.0000000000002,410.0000000000001 L 1150,410" fill="none" stroke="#7E7E7E" stroke-width="2" stroke-linecap="round" stroke-linejoin="round"/></g></g><g id="kWkqRuLs0cc"><g><path d="M 1150,610 L 1129.9999999999998,610 L 1130,585 L 1129.9999999999998,560.0000000000001 L 1130,560 L 1130.0000000000002,560.0000000000001 L 1130,485 L 1130.0000000000002,410.0000000000001 L 1150,410" fill="none" stroke="#7E7E7E" stroke-width="2" stroke-linecap="round" stroke-linejoin="round"/></g></g><g id="jOEjLRtvzS7"><g><path d="M 1150,510 L 1129.9999999999998,509.99999999999994 L 1130,485 L 1129.9999999999998,460 L 1130,460 L 1130.0000000000002,460 L 1130,435 L 1130.0000000000002,410.0000000000001 L 1150,410" fill="none" stroke="#7E7E7E" stroke-width="2" stroke-linecap="round" stroke-linejoin="round"/></g></g><g id="f1Vf0revELe"><g transform="translate(880.0000000000005 380.00000000000017)"><rect x="0" y="0" width="200" height="59.999999999999936" fill="rgb(116,132,193)" stroke="#7484c1" stroke-width="2" stroke-linecap="round" stroke-linejoin="round" stroke-dasharray="0 0"/></g><g transform="translate(901.0000000000005, 391.0000000000001) rotate(0, 79, 19)" width="158" height="38"><text text-decoration="none" x="33.5" fill="#ffffff" font-weight="bold" font-size="10pt" font-family="lt_regular"  y="14">Michael&#160;</text><text text-decoration="none" x="80.5" fill="#ffffff" font-weight="bold" font-size="10pt" font-family="lt_regular"  y="14">C.&#160;</text><text text-decoration="none" x="95.5" fill="#ffffff" font-weight="bold" font-size="10pt" font-family="lt_regular"  y="14">Roop</text><text text-decoration="none" x="124.5" fill="#ffffff" font-size="10pt" font-family="lt_regular"  y="14"></text><text text-decoration="none" x="1" fill="#ffffff" font-size="10pt" font-family="lt_regular"  y="33">Human&#160;</text><text text-decoration="none" x="45" fill="#ffffff" font-size="10pt" font-family="lt_regular"  y="33">Resources&#160;</text><text text-decoration="none" x="107" fill="#ffffff" font-size="10pt" font-family="lt_regular"  y="33">Manager</text><text text-decoration="none" x="157" fill="#4b4b4b" font-size="10pt" font-family="noto_regular"  y="33"></text></g></g><g id="vfA8bTDL8eg"><g transform="translate(879.9999999999993 480.00000000000034)"><rect x="0" y="0" width="200" height="59.999999999999936" fill="rgb(116,132,193)" stroke="#7484c1" stroke-width="2" stroke-linecap="round" stroke-linejoin="round" stroke-dasharray="0 0"/></g><g transform="translate(922.4999999999993, 491.0000000000003) rotate(0, 57.5, 19)" width="115" height="38"><text text-decoration="none" x="1" fill="#ffffff" font-weight="bold" font-size="10pt" font-family="lt_regular"  y="14">James&#160;</text><text text-decoration="none" x="39" fill="#ffffff" font-weight="bold" font-size="10pt" font-family="lt_regular"  y="14">M.&#160;</text><text text-decoration="none" x="57" fill="#ffffff" font-weight="bold" font-size="10pt" font-family="lt_regular"  y="14">Rodriguez</text><text text-decoration="none" x="114" fill="#ffffff" font-size="10pt" font-family="lt_regular"  y="14"></text><text text-decoration="none" x="13" fill="#ffffff" font-size="10pt" font-family="lt_regular"  y="33">Senior&#160;</text><text text-decoration="none" x="52" fill="#ffffff" font-size="10pt" font-family="lt_regular"  y="33">Manager</text><text text-decoration="none" x="102" fill="#4b4b4b" font-size="10pt" font-family="noto_regular"  y="33"></text></g></g><g id="3RozKOexgvO"><g transform="translate(880.0000000000001 580.0000000000001)"><rect x="0" y="0" width="200.00000000000003" height="59.99999999999994" fill="rgb(116,132,193)" stroke="#7484c1" stroke-width="2" stroke-linecap="round" stroke-linejoin="round" stroke-dasharray="0 0"/></g><g transform="translate(926.5000000000002, 591) rotate(0, 53.5, 19)" width="107" height="38"><text text-decoration="none" x="8" fill="#ffffff" font-weight="bold" font-size="10pt" font-family="lt_regular"  y="14">John&#160;</text><text text-decoration="none" x="37" fill="#ffffff" font-weight="bold" font-size="10pt" font-family="lt_regular"  y="14">P.&#160;</text><text text-decoration="none" x="51" fill="#ffffff" font-weight="bold" font-size="10pt" font-family="lt_regular"  y="14">Ridgway</text><text text-decoration="none" x="99" fill="#ffffff" font-size="10pt" font-family="lt_regular"  y="14"></text><text text-decoration="none" x="0.5" fill="#ffffff" font-size="10pt" font-family="lt_regular"  y="33">Assistant&#160;</text><text text-decoration="none" x="56.5" fill="#ffffff" font-size="10pt" font-family="lt_regular"  y="33">Manager</text><text text-decoration="none" x="106.5" fill="#4b4b4b" font-size="10pt" font-family="noto_regular"  y="33"></text></g></g><g id="hHT8Ifn2bff"><g transform="translate(879.9999999999993 670.0000000000001)"><rect x="0" y="0" width="200" height="59.999999999999936" fill="rgb(116,132,193)" stroke="#7484c1" stroke-width="2" stroke-linecap="round" stroke-linejoin="round" stroke-dasharray="0 0"/></g><g transform="translate(939.9999999999993, 681) rotate(0, 40, 19)" width="80" height="38"><text text-decoration="none" x="0.5" fill="#ffffff" font-weight="bold" font-size="10pt" font-family="lt_regular"  y="14">Anna&#160;</text><text text-decoration="none" x="32.5" fill="#ffffff" font-weight="bold" font-size="10pt" font-family="lt_regular"  y="14">J.&#160;</text><text text-decoration="none" x="43.5" fill="#ffffff" font-weight="bold" font-size="10pt" font-family="lt_regular"  y="14">Kelley</text><text text-decoration="none" x="79.5" fill="#ffffff" font-weight="bold" font-size="10pt" font-family="lt_regular"  y="14"></text><text text-decoration="none" x="26" fill="#ffffff" font-size="10pt" font-family="lt_regular"  y="33">Staff</text><text text-decoration="none" x="54" fill="#4b4b4b" font-size="10pt" font-family="noto_regular"  y="33"></text></g></g><g id="fEc1FkUzSro"><g><path d="M 880,700 L 859.9999999999993,700 L 860,675 L 859.9999999999993,650.0000000000001 L 860,650 L 860.0000000000005,650.0000000000001 L 860,530 L 860.0000000000005,410.0000000000001 L 880,410" fill="none" stroke="#7E7E7E" stroke-width="2" stroke-linecap="round" stroke-linejoin="round"/></g></g><g id="6k1HjvJtV8p"><g><path d="M 880,610 L 860.0000000000001,610 L 860,585 L 860.0000000000001,560.0000000000001 L 860,560 L 860.0000000000005,560.0000000000001 L 860,485 L 860.0000000000005,410.0000000000001 L 880,410" fill="none" stroke="#7E7E7E" stroke-width="2" stroke-linecap="round" stroke-linejoin="round"/></g></g><g id="YLVH8G1X3Zd"><g><path d="M 880,510 L 859.9999999999993,510.0000000000003 L 860,485 L 859.9999999999993,460.00000000000034 L 860,460 L 860.0000000000005,460.00000000000034 L 860,435 L 860.0000000000005,410.0000000000001 L 880,410" fill="none" stroke="#7E7E7E" stroke-width="2" stroke-linecap="round" stroke-linejoin="round"/></g></g><g id="uuxZ3wlfMEh"><g transform="translate(619.9999999999999 380.00000000000017)"><rect x="0" y="0" width="200" height="59.999999999999936" fill="rgb(85,112,125)" stroke="#55707d" stroke-width="2" stroke-linecap="round" stroke-linejoin="round" stroke-dasharray="0 0"/></g><g transform="translate(665.9999999999999, 391.0000000000001) rotate(0, 54, 19)" width="108" height="38"><text text-decoration="none" x="1.5" fill="#ffffff" font-weight="bold" font-size="10pt" font-family="lt_regular"  y="14">Germaine&#160;</text><text text-decoration="none" x="60.5" fill="#ffffff" font-weight="bold" font-size="10pt" font-family="lt_regular"  y="14">S.&#160;</text><text text-decoration="none" x="73.5" fill="#ffffff" font-weight="bold" font-size="10pt" font-family="lt_regular"  y="14">Smith</text><text text-decoration="none" x="106.5" fill="#ffffff" font-weight="bold" font-size="10pt" font-family="lt_regular"  y="14"></text><text text-decoration="none" x="1" fill="#ffffff" font-size="10pt" font-family="lt_regular"  y="33">Technical&#160;</text><text text-decoration="none" x="57" fill="#ffffff" font-size="10pt" font-family="lt_regular"  y="33">Manager</text><text text-decoration="none" x="107" fill="#4b4b4b" font-size="10pt" font-family="noto_regular"  y="33"></text></g></g><g id="PHD4RI7uCwq"><g transform="translate(620.0000000000001 480)"><rect x="0" y="0" width="200.00000000000003" height="59.99999999999994" fill="rgb(85,112,125)" stroke="#55707d" stroke-width="2" stroke-linecap="round" stroke-linejoin="round" stroke-dasharray="0 0"/></g><g transform="translate(670.0000000000001, 491) rotate(0, 50, 19)" width="100" height="38"><text text-decoration="none" x="1.5" fill="#ffffff" font-weight="bold" font-size="10pt" font-family="lt_regular"  y="14">Marilyn&#160;</text><text text-decoration="none" x="47.5" fill="#ffffff" font-weight="bold" font-size="10pt" font-family="lt_regular"  y="14">B.&#160;</text><text text-decoration="none" x="61.5" fill="#ffffff" font-weight="bold" font-size="10pt" font-family="lt_regular"  y="14">Brown</text><text text-decoration="none" x="98.5" fill="#ffffff" font-size="10pt" font-family="lt_regular"  y="14"></text><text text-decoration="none" x="5.5" fill="#ffffff" font-size="10pt" font-family="lt_regular"  y="33">Senior&#160;</text><text text-decoration="none" x="44.5" fill="#ffffff" font-size="10pt" font-family="lt_regular"  y="33">Manager</text><text text-decoration="none" x="94.5" fill="#4b4b4b" font-size="10pt" font-family="noto_regular"  y="33"></text></g></g><g id="NSXXunVUsHV"><g transform="translate(619.9999999999999 580.0000000000001)"><rect x="0" y="0" width="200" height="59.999999999999936" fill="rgb(85,112,125)" stroke="#55707d" stroke-width="2" stroke-linecap="round" stroke-linejoin="round" stroke-dasharray="0 0"/></g><g transform="translate(663.4999999999999, 591) rotate(0, 56.5, 19)" width="113" height="38"><text text-decoration="none" x="2" fill="#ffffff" font-weight="bold" font-size="10pt" font-family="lt_regular"  y="14">Joseph&#160;</text><text text-decoration="none" x="44" fill="#ffffff" font-weight="bold" font-size="10pt" font-family="lt_regular"  y="14">B.&#160;</text><text text-decoration="none" x="58" fill="#ffffff" font-weight="bold" font-size="10pt" font-family="lt_regular"  y="14">Steinhoff</text><text text-decoration="none" x="111" fill="#ffffff" font-size="10pt" font-family="lt_regular"  y="14"></text><text text-decoration="none" x="3.5" fill="#ffffff" font-size="10pt" font-family="lt_regular"  y="33">Assistant&#160;</text><text text-decoration="none" x="59.5" fill="#ffffff" font-size="10pt" font-family="lt_regular"  y="33">Manager</text><text text-decoration="none" x="109.5" fill="#4b4b4b" font-size="10pt" font-family="noto_regular"  y="33"></text></g></g><g id="cMQihOFcjmj"><g transform="translate(619.9999999999999 670.0000000000001)"><rect x="0" y="0" width="200" height="59.999999999999936" fill="rgb(85,112,125)" stroke="#55707d" stroke-width="2" stroke-linecap="round" stroke-linejoin="round" stroke-dasharray="0 0"/></g><g transform="translate(660.9999999999999, 681) rotate(0, 59, 19)" width="118" height="38"><text text-decoration="none" x="0.5" fill="#ffffff" font-weight="bold" font-size="10pt" font-family="lt_regular"  y="14">Jimmie&#160;</text><text text-decoration="none" x="43.5" fill="#ffffff" font-weight="bold" font-size="10pt" font-family="lt_regular"  y="14">V.&#160;</text><text text-decoration="none" x="58.5" fill="#ffffff" font-weight="bold" font-size="10pt" font-family="lt_regular"  y="14">Robertson</text><text text-decoration="none" x="117.5" fill="#ffffff" font-size="10pt" font-family="lt_regular"  y="14"></text><text text-decoration="none" x="45" fill="#ffffff" font-size="10pt" font-family="lt_regular"  y="33">Staff</text><text text-decoration="none" x="73" fill="#4b4b4b" font-size="10pt" font-family="noto_regular"  y="33"></text></g></g><g id="rC4H6i9Hges"><g transform="translate(350.0000000000002 380.0000000000001)"><rect x="0" y="0" width="200.00000000000003" height="59.99999999999994" fill="rgb(43,188,178)" stroke="#2bbcb2" stroke-width="2" stroke-linecap="round" stroke-linejoin="round" stroke-dasharray="0 0"/></g><g transform="translate(397.5000000000002, 391.0000000000001) rotate(0, 52.5, 19)" width="105" height="38"><text text-decoration="none" x="1.5" fill="#ffffff" font-weight="bold" font-size="10pt" font-family="lt_regular"  y="14">Michele&#160;</text><text text-decoration="none" x="49.5" fill="#ffffff" font-weight="bold" font-size="10pt" font-family="lt_regular"  y="14">P.&#160;</text><text text-decoration="none" x="63.5" fill="#ffffff" font-weight="bold" font-size="10pt" font-family="lt_regular"  y="14">Lucifer</text><text text-decoration="none" x="103.5" fill="#ffffff" font-size="10pt" font-family="lt_regular"  y="14"></text><text text-decoration="none" x="2" fill="#ffffff" font-size="10pt" font-family="lt_regular"  y="33">Financial&#160;</text><text text-decoration="none" x="53" fill="#ffffff" font-size="10pt" font-family="lt_regular"  y="33">Manager</text><text text-decoration="none" x="103" fill="#4b4b4b" font-size="10pt" font-family="noto_regular"  y="33"></text></g></g><g id="7Zk3wyIdoQS"><g transform="translate(350 480)"><rect x="0" y="0" width="200.00000000000003" height="59.99999999999994" fill="rgb(43,188,178)" stroke="#2bbcb2" stroke-width="2" stroke-linecap="round" stroke-linejoin="round" stroke-dasharray="0 0"/></g><g transform="translate(394, 491) rotate(0, 56, 19)" width="112" height="38"><text text-decoration="none" x="0" fill="#ffffff" font-weight="bold" font-size="10pt" font-family="lt_regular"  y="14">Timothy&#160;</text><text text-decoration="none" x="51" fill="#ffffff" font-weight="bold" font-size="10pt" font-family="lt_regular"  y="14">A.&#160;</text><text text-decoration="none" x="66" fill="#ffffff" font-weight="bold" font-size="10pt" font-family="lt_regular"  y="14">Merrow</text><text text-decoration="none" x="112" fill="#ffffff" font-size="10pt" font-family="lt_regular"  y="14"></text><text text-decoration="none" x="11.5" fill="#ffffff" font-size="10pt" font-family="lt_regular"  y="33">Senior&#160;</text><text text-decoration="none" x="50.5" fill="#ffffff" font-size="10pt" font-family="lt_regular"  y="33">Manager</text><text text-decoration="none" x="100.5" fill="#4b4b4b" font-size="10pt" font-family="noto_regular"  y="33"></text></g></g><g id="6J5mfPKVwda"><g transform="translate(350 580.0000000000001)"><rect x="0" y="0" width="200.00000000000003" height="59.99999999999994" fill="rgb(43,188,178)" stroke="#2bbcb2" stroke-width="2" stroke-linecap="round" stroke-linejoin="round" stroke-dasharray="0 0"/></g><g transform="translate(395, 591) rotate(0, 55, 19)" width="110" height="38"><text text-decoration="none" x="1.5" fill="#ffffff" font-weight="bold" font-size="10pt" font-family="lt_regular"  y="14">Jason&#160;</text><text text-decoration="none" x="35.5" fill="#ffffff" font-weight="bold" font-size="10pt" font-family="lt_regular"  y="14">C.&#160;</text><text text-decoration="none" x="50.5" fill="#ffffff" font-weight="bold" font-size="10pt" font-family="lt_regular"  y="14">Jankowski</text><text text-decoration="none" x="108.5" fill="#ffffff" font-size="10pt" font-family="lt_regular"  y="14"></text><text text-decoration="none" x="2" fill="#ffffff" font-size="10pt" font-family="lt_regular"  y="33">Assistant&#160;</text><text text-decoration="none" x="58" fill="#ffffff" font-size="10pt" font-family="lt_regular"  y="33">Manager</text><text text-decoration="none" x="108" fill="#4b4b4b" font-size="10pt" font-family="noto_regular"  y="33"></text></g></g><g id="NJzvACGehDQ"><g transform="translate(349.99999999999875 670.0000000000001)"><rect x="0" y="0" width="200" height="59.999999999999936" fill="rgb(43,188,178)" stroke="#2bbcb2" stroke-width="2" stroke-linecap="round" stroke-linejoin="round" stroke-dasharray="0 0"/></g><g transform="translate(407.49999999999875, 681) rotate(0, 42.5, 19)" width="85" height="38"><text text-decoration="none" x="1" fill="#ffffff" font-weight="bold" font-size="10pt" font-family="lt_regular"  y="14">David&#160;</text><text text-decoration="none" x="37" fill="#ffffff" font-weight="bold" font-size="10pt" font-family="lt_regular"  y="14">P.&#160;</text><text text-decoration="none" x="51" fill="#ffffff" font-weight="bold" font-size="10pt" font-family="lt_regular"  y="14">Perez&#160;</text><text text-decoration="none" x="42.5" fill="#ffffff" font-size="10pt" font-family="lt_regular"  y="32"></text><text text-decoration="none" x="28.5" fill="#ffffff" font-size="10pt" font-family="lt_regular"  y="51">Staff</text><text text-decoration="none" x="56.5" fill="#4b4b4b" font-size="10pt" font-family="noto_regular"  y="51"></text></g></g><g id="v4wPXt8bWqi"><g><path d="M 620,410 L 599.9999999999999,410.0000000000001 L 600,460 L 599.9999999999999,460.0000000000001 L 600,580 L 599.9999999999999,700 L 620,700" fill="none" stroke="#7E7E7E" stroke-width="2" stroke-linecap="round" stroke-linejoin="round"/></g></g><g id="CUKdMtSM16X"><mask id="db359" x="586" y="396" width="48" height="128" maskUnits="userSpaceOnUse"><rect x="586" y="396" width="48" height="128" fill="white" />undefined</mask><g mask="url(#db359)"><path d="M 620,510 L 600.0000000000001,510 L 600,485 L 600.0000000000001,460.0000000000001 L 600,460 L 599.9999999999999,460.0000000000001 L 600,435 L 599.9999999999999,410.0000000000001 L 620,410" fill="none" stroke="#7E7E7E" stroke-width="2" stroke-linecap="round" stroke-linejoin="round"/></g>undefined</g><g id="sJkSH8IqUo6"><g><path d="M 620,610 L 599.9999999999999,610 L 600,560 L 599.9999999999999,560.0000000000001 L 600,485 L 599.9999999999999,410.0000000000001 L 620,410" fill="none" stroke="#7E7E7E" stroke-width="2" stroke-linecap="round" stroke-linejoin="round"/></g></g><g id="MasBJ8ckVU7"><g><path d="M 350,700 L 329.99999999999875,700 L 330,675 L 329.99999999999875,650.0000000000001 L 330,650 L 330.0000000000002,650.0000000000001 L 330,530 L 330.0000000000002,410.0000000000001 L 350,410" fill="none" stroke="#7E7E7E" stroke-width="2" stroke-linecap="round" stroke-linejoin="round"/></g></g><g id="8kKnlEvOIRU"><g><path d="M 350,510 L 330,510 L 330,485 L 330,460 L 330,460 L 330.0000000000002,460 L 330,435 L 330.0000000000002,410.0000000000001 L 350,410" fill="none" stroke="#7E7E7E" stroke-width="2" stroke-linecap="round" stroke-linejoin="round"/></g></g><g id="mDcwUmIuNcL"><g><path d="M 350,610 L 330,610 L 330,585 L 330,560.0000000000001 L 330,560 L 330.0000000000002,560.0000000000001 L 330,485 L 330.0000000000002,410.0000000000001 L 350,410" fill="none" stroke="#7E7E7E" stroke-width="2" stroke-linecap="round" stroke-linejoin="round"/></g></g><g id="w5rfdjojnw0"><g><path d="M 420,280 L 419.99999999999886,235 L 625,235 L 830.0000000000002,235 L 830,190" fill="none" stroke="#7E7E7E" stroke-width="2" stroke-linecap="round" stroke-linejoin="round"/></g></g><g id="6YzihoT0fCv"><g><path d="M 680,280 L 679.9999999999999,235 L 755,235 L 830.0000000000002,235 L 830,190" fill="none" stroke="#7E7E7E" stroke-width="2" stroke-linecap="round" stroke-linejoin="round"/></g></g><g id="9XOYT3fPDQD"><g><path d="M 940,280 L 939.9999999999999,235.00000000000006 L 885,235 L 830.0000000000002,235.00000000000006 L 830,190" fill="none" stroke="#7E7E7E" stroke-width="2" stroke-linecap="round" stroke-linejoin="round"/></g></g><g id="5nxurLvE50G"><g><path d="M 1210,280 L 1209.9999999999998,235.00000000000003 L 1020,235 L 830.0000000000002,235.00000000000003 L 830,190" fill="none" stroke="#7E7E7E" stroke-width="2" stroke-linecap="round" stroke-linejoin="round"/></g></g><g id="Epmta8MQ6Gg"><g><path d="M 420,340 L 419.99999999999886,360.0000000000001 L 435,360 L 450.0000000000002,360.0000000000001 L 450,380" fill="none" stroke="#7E7E7E" stroke-width="2" stroke-linecap="round" stroke-linejoin="round"/></g></g><g id="r5tFDYisjMa"><g><path d="M 680,340 L 680,360 L 700,360 L 720,360 L 720,380" fill="none" stroke="#7E7E7E" stroke-width="2" stroke-linecap="round" stroke-linejoin="round"/></g></g><g id="VD3kUzI3OVv"><g><path d="M 940,340 L 939.9999999999999,360.00000000000017 L 960,360 L 980.0000000000005,360.00000000000017 L 980,380" fill="none" stroke="#7E7E7E" stroke-width="2" stroke-linecap="round" stroke-linejoin="round"/></g></g><g id="2yfllgB4JAr"><g><path d="M 1210,340 L 1209.9999999999998,360.0000000000001 L 1230,360 L 1250.0000000000002,360.0000000000001 L 1250,380" fill="none" stroke="#7E7E7E" stroke-width="2" stroke-linecap="round" stroke-linejoin="round"/></g></g><g id="axTwWh24Oyx"><g transform="translate(830 180.00000000000006)"><rect x="0" y="0" width="89.99999999999973" height="58.00000000000001" fill="rgba(255,255,255,0.01)" stroke="rgba(255,255,255,0.01)"/></g><g transform="translate(840, 190.00000000000006) rotate(0, 0, 0)" width="64" height="38"><text text-decoration="none" x="0" fill="#4b4b4b" font-size="10pt" font-family="lt_regular"  y="14">Miky&#160;</text><text text-decoration="none" x="32" fill="#4b4b4b" font-size="10pt" font-family="lt_regular"  y="14">Davis</text><text text-decoration="none" x="64" fill="#4b4b4b" font-size="10pt" font-family="lt_regular"  y="14"></text><text text-decoration="none" x="0" fill="#4b4b4b" font-size="10pt" font-family="lt_regular"  y="33">CEO</text><text text-decoration="none" x="27" fill="#4b4b4b" font-size="10pt" font-family="noto_regular"  y="33"></text></g></g></svg>